<svg xmlns="http://www.w3.org/2000/svg" xmlns:xlink="http://www.w3.org/1999/xlink" width="794" zoomAndPan="magnify" viewBox="0 0 594.95996 595.499999" height="794" preserveAspectRatio="xMidYMid meet" version="1.0"><defs><clipPath id="7d337bc3a7"><path d="M 158 0 L 437.359375 0 L 437.359375 595 L 158 595 Z M 158 0 " clip-rule="nonzero"/></clipPath></defs><g clip-path="url(#7d337bc3a7)"><path fill="#c87137" d="M 244.234375 593.875 C 243.0625 593.28125 241.9375 591.109375 240.71875 587.082031 C 238.855469 580.941406 234.824219 564.222656 233.167969 555.800781 C 230.285156 541.128906 228.160156 525.875 227.191406 512.863281 C 226.734375 506.71875 226.738281 486.671875 227.191406 478.386719 C 227.964844 464.40625 228.699219 455.96875 229.96875 446.515625 C 230.519531 442.417969 230.519531 442.152344 229.953125 437.953125 C 229.03125 431.113281 227.792969 424.675781 226.222656 418.546875 C 224.632812 412.335938 225.136719 413.3125 221.238281 408.863281 C 219.21875 406.554688 216.371094 403.578125 214.332031 401.644531 C 212.425781 399.835938 207.714844 395.183594 203.863281 391.308594 C 200.011719 387.4375 195.226562 382.796875 193.222656 381.003906 C 186.753906 375.195312 182.980469 370.867188 178.660156 364.308594 C 173.183594 355.992188 164.308594 337.648438 161.5 328.832031 C 158.875 320.601562 157.867188 312.023438 158.097656 299.902344 C 158.242188 292.429688 158.515625 288.183594 158.882812 287.773438 C 159.125 287.503906 159.121094 287.25 158.859375 285.5 C 157.910156 279.171875 158.136719 269.328125 159.394531 261.96875 C 160.738281 254.109375 165.285156 239.828125 167.898438 235.257812 C 168.6875 233.878906 169.648438 232.855469 170.152344 232.855469 C 171.214844 232.855469 172.339844 234.023438 174.707031 237.585938 C 178.441406 243.199219 180.878906 248.285156 185.910156 260.964844 C 188.8125 268.277344 190.082031 271.226562 192.5 276.25 C 197.886719 287.429688 199.222656 291 201.605469 300.585938 C 204.019531 310.3125 204.734375 312.480469 208.125 320.425781 C 210.847656 326.804688 212.152344 330.742188 213.140625 335.5625 C 214 339.757812 214.289062 342.476562 214.777344 350.9375 C 215.5 363.449219 216.0625 368.117188 217.855469 376.492188 C 218.636719 380.136719 219.183594 383.050781 220.121094 388.597656 C 220.648438 391.714844 220.902344 392.71875 221.65625 394.710938 C 225.863281 405.824219 229.574219 420.632812 231.039062 432.171875 C 231.203125 433.472656 231.386719 434.742188 231.445312 434.992188 C 231.507812 435.269531 231.890625 433.511719 232.421875 430.480469 C 234.371094 419.378906 236.003906 411.824219 239.960938 395.601562 C 245.015625 374.882812 246.953125 365.882812 249.054688 353.332031 C 252.148438 334.847656 253.460938 318.855469 253.296875 301.621094 L 253.234375 295.339844 L 252.207031 293.609375 C 249.886719 289.726562 245.847656 284.859375 240.511719 279.515625 C 234.765625 273.765625 231.601562 271.132812 225.597656 267.101562 C 223.703125 265.828125 221.328125 264.140625 220.324219 263.347656 C 218.234375 261.695312 214.832031 258.339844 212.558594 255.691406 C 206.957031 249.15625 200.515625 239.011719 195.6875 229.125 C 191.691406 220.945312 189.84375 216.191406 184.589844 200.5625 C 180.089844 187.191406 177.960938 181.539062 173.589844 171.359375 C 170.867188 165.015625 169.628906 161.527344 169.710938 160.421875 C 169.84375 158.601562 170.875 159.109375 174.742188 162.898438 C 180.046875 168.089844 183.773438 172.34375 188.457031 178.546875 C 192.792969 184.292969 198.144531 190.765625 204.402344 197.839844 C 210.960938 205.246094 215.746094 211.617188 219.773438 218.300781 C 221.359375 220.933594 224.226562 226.632812 226.425781 231.53125 C 227.179688 233.214844 227.648438 234.058594 227.761719 233.945312 C 228.65625 233.050781 230.617188 234.992188 235.226562 241.332031 C 236.523438 243.117188 239.167969 246.582031 241.109375 249.039062 C 246.046875 255.289062 247.925781 258.058594 249.925781 262.019531 C 250.417969 263 250.84375 263.78125 250.871094 263.75 C 250.894531 263.71875 250.640625 261.320312 250.308594 258.417969 C 248.957031 246.699219 248.046875 237.167969 247.386719 227.761719 C 246.988281 222.109375 246.925781 206.128906 247.289062 202.199219 C 247.78125 196.832031 248.566406 191.695312 249.519531 187.605469 L 249.867188 186.105469 L 248.425781 181.144531 C 245.972656 172.707031 244.722656 169.328125 242.121094 164.082031 C 239.511719 158.828125 236.65625 154.484375 233.023438 150.261719 C 232.039062 149.113281 229.183594 146.078125 226.679688 143.515625 C 221.71875 138.441406 220.140625 136.65625 217.496094 133.128906 C 209.773438 122.832031 204.167969 107.429688 202.46875 91.851562 C 202.019531 87.714844 202.019531 78.386719 202.472656 74.476562 C 203.894531 62.21875 206.921875 51.769531 214.414062 33.269531 C 215.527344 30.515625 218.355469 23.476562 220.699219 17.621094 C 226.398438 3.386719 227.742188 0.699219 229.167969 0.699219 C 230.503906 0.699219 230.828125 1.71875 231.675781 8.523438 C 231.980469 10.976562 232.839844 16.75 233.582031 21.351562 C 237.984375 48.597656 239.265625 53.441406 247.875 75.296875 C 253.472656 89.511719 255.644531 96.394531 257.03125 104.316406 C 257.964844 109.652344 258.140625 111.652344 258.144531 117.144531 C 258.148438 124.308594 257.820312 126.628906 255.238281 137.703125 C 253.351562 145.796875 252.457031 150.523438 251.777344 155.988281 C 251.128906 161.191406 251.027344 169.097656 251.523438 175.636719 C 251.808594 179.429688 251.785156 179.40625 252.773438 176.710938 C 255.976562 167.980469 259.917969 160.539062 265.4375 152.804688 C 267.492188 149.921875 267.703125 149.535156 270.703125 143.160156 C 278.261719 127.101562 281.308594 121.304688 287.484375 111.230469 C 295.84375 97.582031 302.234375 89.25 308.128906 84.289062 C 313.824219 79.5 323.054688 74.085938 336.878906 67.433594 C 344.972656 63.535156 355.492188 58.054688 363.074219 53.78125 C 365.429688 52.453125 369.011719 50.070312 370.804688 48.632812 C 374.90625 45.347656 379.050781 40.421875 382.363281 34.886719 C 384.132812 31.933594 384.363281 31.632812 384.832031 31.632812 C 385.332031 31.632812 385.710938 32.367188 386.019531 33.9375 C 386.398438 35.851562 386.574219 51.070312 386.269531 55.453125 C 385.335938 69.011719 381.628906 76.644531 372.113281 84.605469 C 366.488281 89.3125 361.15625 92.425781 351.617188 96.582031 C 343.191406 100.253906 336.546875 104.019531 331.675781 107.890625 C 330.640625 108.714844 327.832031 111.316406 325.429688 113.679688 C 323.03125 116.039062 320.207031 118.789062 319.152344 119.789062 C 314.316406 124.382812 306.75 130.261719 300.609375 134.199219 C 295.195312 137.664062 292.078125 139.203125 286.332031 141.238281 C 280.851562 143.179688 278.640625 144.085938 278.125 144.597656 C 277.359375 145.363281 272.082031 152.472656 270.007812 155.53125 C 265.171875 162.671875 260.886719 170.828125 258.058594 178.277344 C 254.460938 187.746094 252.59375 196.613281 251.652344 208.660156 C 251.347656 212.578125 251.351562 228.226562 251.65625 233.21875 C 252.253906 242.929688 253.597656 259.214844 253.785156 259.019531 C 253.8125 258.988281 254.214844 257.367188 254.675781 255.417969 C 255.136719 253.464844 256.121094 249.578125 256.867188 246.773438 C 261.617188 228.90625 264.296875 221.582031 271.78125 206.019531 C 273.609375 202.21875 275.945312 197.222656 276.964844 194.921875 C 282.527344 182.40625 287.175781 175.40625 293.105469 170.617188 C 293.882812 169.988281 295.667969 168.71875 297.078125 167.789062 C 299.496094 166.199219 300.949219 165.359375 305.375 162.992188 C 306.402344 162.441406 308.984375 160.84375 311.113281 159.445312 C 313.238281 158.042969 315.777344 156.382812 316.75 155.75 C 318.582031 154.566406 319.449219 153.839844 324.460938 149.28125 C 327.960938 146.09375 328.605469 145.632812 332.015625 143.90625 C 333.4375 143.1875 335.15625 142.167969 335.835938 141.644531 C 338.488281 139.59375 339.152344 139.246094 339.457031 139.742188 C 339.53125 139.859375 339.601562 140.679688 339.617188 141.5625 C 339.628906 142.457031 339.730469 143.257812 339.84375 143.367188 C 339.988281 143.515625 340.636719 143.289062 342.234375 142.539062 C 343.4375 141.972656 344.757812 141.390625 345.164062 141.25 C 346.632812 140.730469 349.816406 140.238281 353.03125 140.035156 C 355.949219 139.847656 356.527344 139.859375 358.382812 140.152344 C 359.835938 140.378906 360.871094 140.441406 361.808594 140.355469 L 363.152344 140.234375 L 363.546875 141.011719 C 364.179688 142.253906 364.769531 144.15625 365.164062 146.234375 C 365.367188 147.296875 365.777344 148.859375 366.074219 149.710938 C 366.777344 151.722656 366.804688 153.292969 366.171875 155.296875 C 365.597656 157.109375 363.152344 162.089844 361.714844 164.378906 C 360.339844 166.570312 355.28125 173.820312 353.164062 176.636719 C 351.566406 178.761719 347.71875 184.265625 345.40625 187.734375 C 342.910156 191.472656 340.710938 195.519531 338.429688 200.5625 C 336.636719 204.53125 335.851562 205.988281 334.179688 208.464844 C 331.601562 212.277344 327.335938 216.152344 322.265625 219.277344 C 321.40625 219.808594 318.699219 221.292969 316.246094 222.574219 C 310.558594 225.554688 307.757812 227.167969 304.246094 229.476562 C 300.789062 231.753906 294.839844 235.949219 290.683594 239.042969 C 285.386719 242.988281 283.261719 244.328125 276.695312 247.855469 C 270.511719 251.179688 266.707031 253.9375 262.328125 258.261719 C 258.996094 261.550781 257.640625 263.621094 256.152344 267.699219 C 255.785156 268.699219 255.316406 269.753906 255.109375 270.042969 C 254.734375 270.5625 254.734375 270.578125 255.035156 274.5 C 255.742188 283.699219 255.902344 287.660156 256 298.367188 C 256.101562 309.515625 255.96875 314.945312 255.410156 322.734375 C 254.023438 342.015625 250.644531 362.105469 244.308594 388.765625 C 243.464844 392.308594 242.804688 395.234375 242.835938 395.265625 C 242.9375 395.367188 250.882812 378.296875 256.164062 366.632812 C 259.566406 359.117188 259.410156 359.636719 261.328125 349.570312 C 262.652344 342.625 263.699219 337.816406 265.167969 331.921875 C 267.578125 322.25 269.335938 317.085938 274.742188 303.8125 C 276.148438 300.359375 277.964844 295.734375 278.78125 293.535156 C 279.597656 291.332031 280.71875 288.304688 281.273438 286.800781 C 284.15625 279.011719 287.285156 273.347656 292.335938 266.789062 C 297.023438 260.695312 302.042969 255.578125 311.0625 247.679688 C 317.890625 241.707031 329.007812 233.449219 341.070312 225.394531 C 349.582031 219.707031 354.324219 216.867188 364.4375 211.382812 C 366.890625 210.054688 370.285156 208.191406 371.984375 207.238281 C 378.09375 203.816406 384.40625 200.835938 385.539062 200.835938 C 386.003906 200.835938 386.167969 201.238281 385.902344 201.734375 C 385.753906 202.011719 386.03125 201.886719 386.933594 201.277344 C 390.703125 198.722656 397.90625 195.9375 407.351562 193.378906 C 420.230469 189.890625 429.453125 187.792969 433.359375 187.464844 C 434.929688 187.332031 434.785156 187.617188 433.179688 187.824219 C 429.261719 188.328125 419.816406 190.59375 406.992188 194.105469 C 397.417969 196.726562 390.273438 199.792969 385.761719 203.207031 C 384.710938 204.003906 384.078125 204.195312 384.078125 203.71875 C 384.078125 203.625 384.242188 203.230469 384.441406 202.835938 C 384.640625 202.445312 384.804688 202.085938 384.804688 202.042969 C 384.804688 201.691406 377.929688 205.042969 372.894531 207.847656 C 370.792969 209.015625 367.03125 211.082031 364.527344 212.4375 C 350.390625 220.101562 340.28125 226.535156 326.792969 236.453125 C 318.257812 242.734375 314.785156 245.507812 308.796875 250.855469 C 300.863281 257.929688 296.371094 262.882812 291.726562 269.667969 C 287.0625 276.484375 284.363281 282.058594 280.613281 292.609375 C 275.644531 306.59375 273.539062 313.433594 267.621094 334.835938 C 265.765625 341.539062 263.964844 348.003906 263.617188 349.203125 C 263.269531 350.402344 263.003906 351.398438 263.023438 351.417969 C 263.046875 351.441406 263.628906 350.253906 264.320312 348.785156 C 266.136719 344.921875 270.835938 335.578125 272.980469 331.558594 C 283.304688 312.234375 292.941406 298.441406 305.285156 285.335938 C 314.714844 275.324219 324.335938 267.769531 345.617188 253.683594 C 356.765625 246.300781 370.695312 237.601562 370.953125 237.855469 C 371.109375 238.011719 370.9375 238.136719 365.445312 241.839844 C 362.941406 243.53125 356.882812 247.617188 351.980469 250.921875 C 336.589844 261.304688 330.917969 265.265625 324.429688 270.164062 C 310.832031 280.429688 300.863281 290.726562 290.785156 304.90625 C 283.214844 315.554688 276.632812 326.824219 269.152344 341.929688 C 265.402344 349.503906 264.957031 350.453125 259.105469 363.21875 C 256.90625 368.019531 255.066406 372.011719 255.023438 372.085938 C 254.976562 372.160156 254.980469 372.222656 255.03125 372.222656 C 255.183594 372.222656 256.203125 370.335938 256.332031 369.8125 C 256.402344 369.535156 256.539062 369.3125 256.640625 369.3125 C 256.972656 369.3125 256.589844 370.285156 255.460938 372.296875 C 254.851562 373.390625 253.964844 375.152344 253.492188 376.210938 C 253.019531 377.269531 252.507812 378.160156 252.359375 378.191406 C 252.207031 378.222656 251.960938 378.550781 251.8125 378.917969 C 251.589844 379.46875 245.980469 391.140625 242.347656 398.605469 C 241.625 400.09375 241.34375 401.050781 240.316406 405.519531 C 235.894531 424.746094 233.304688 441.824219 232.398438 457.734375 C 231.996094 464.8125 232.164062 477.996094 232.785156 488.027344 C 233.183594 494.441406 234.957031 512.269531 235.273438 513.042969 C 235.410156 513.378906 235.835938 510.59375 235.855469 509.222656 C 235.863281 508.671875 236.035156 507.117188 236.238281 505.765625 C 237.050781 500.359375 237.914062 491.355469 238.777344 479.292969 C 239.726562 465.980469 240.226562 461.632812 241.433594 456.207031 C 244.640625 441.78125 252.105469 427.414062 263.328125 414.070312 C 271.007812 404.9375 282.707031 393.195312 292.609375 384.683594 C 301.078125 377.402344 308.238281 372.023438 321.796875 362.757812 C 332.191406 355.65625 334.59375 353.96875 338.890625 350.761719 C 344.378906 346.664062 346.644531 344.707031 352.074219 339.382812 C 357.851562 333.707031 359.261719 332.5625 360.46875 332.5625 C 361.125 332.558594 361.710938 333.324219 361.710938 334.175781 C 361.710938 335.8125 360.089844 341.105469 357.167969 349.027344 C 356.242188 351.527344 354.523438 356.316406 353.34375 359.667969 C 347.371094 376.664062 344.894531 383.152344 342.726562 387.503906 C 337.160156 398.675781 330.667969 405.011719 321.601562 408.128906 C 320.597656 408.472656 317.972656 409.210938 315.765625 409.769531 C 311.105469 410.949219 309.511719 411.5 306.519531 412.96875 C 301.851562 415.257812 296.589844 419.105469 290.324219 424.8125 C 287.015625 427.824219 284.859375 430.085938 281.886719 433.648438 C 277.675781 438.699219 276.402344 440.511719 274.707031 443.871094 C 272.347656 448.542969 267.527344 456.226562 262.070312 464.011719 C 253.902344 475.664062 251.496094 479.679688 246.035156 490.757812 C 240.097656 502.8125 237.113281 509.777344 237.070312 511.679688 C 237.058594 512.179688 237.003906 512.628906 236.945312 512.679688 C 236.886719 512.730469 236.65625 514.222656 236.429688 516 C 236.03125 519.140625 236.027344 519.292969 236.316406 521.640625 C 236.765625 525.359375 236.660156 525.339844 237.949219 521.957031 C 242.347656 510.398438 248.054688 499.121094 254.117188 490.027344 C 261.070312 479.59375 273.160156 466.921875 283.808594 458.898438 C 287.527344 456.101562 292.878906 453.023438 293.570312 453.289062 C 294.726562 453.730469 294.140625 455.945312 291.445312 461.332031 C 287.558594 469.09375 285.550781 471.820312 277.171875 480.683594 C 270.738281 487.492188 267.867188 491.640625 264.59375 498.851562 C 261.695312 505.253906 259.832031 508.410156 256.925781 511.863281 C 255.179688 513.933594 253.152344 515.78125 249.871094 518.292969 C 246.757812 520.675781 242.421875 524.175781 239.640625 526.554688 C 237.519531 528.371094 237.324219 528.589844 237.324219 529.15625 C 237.324219 530.707031 239.5 544.386719 241.140625 553.148438 C 243.792969 567.324219 245.925781 582.714844 246.484375 591.695312 C 246.5625 592.960938 246.527344 593.15625 246.175781 593.550781 C 245.632812 594.15625 245 594.261719 244.234375 593.875 Z M 240.144531 522.960938 C 243.003906 519.378906 246.609375 514.617188 254.328125 504.21875 C 258.195312 499.007812 260.957031 495.507812 261.09375 495.644531 C 261.148438 495.699219 260.292969 496.957031 259.195312 498.4375 C 258.097656 499.917969 255.34375 503.734375 253.074219 506.917969 C 248.507812 513.324219 244.246094 519.066406 241.929688 521.914062 C 241.097656 522.941406 240.492188 523.777344 240.585938 523.777344 C 240.679688 523.777344 240.808594 523.695312 240.871094 523.59375 C 241.03125 523.335938 244.8125 520.304688 248.691406 517.324219 C 252.71875 514.226562 254.109375 513.003906 255.738281 511.132812 C 258.101562 508.414062 259.722656 505.710938 263.054688 498.953125 C 267.691406 489.539062 269.300781 487.3125 277.515625 478.929688 C 284.242188 472.066406 286.429688 469.285156 289.382812 463.828125 C 292.121094 458.765625 293.425781 455.746094 293.304688 454.753906 L 293.246094 454.265625 L 290.878906 455.683594 C 280.1875 462.074219 266.570312 474.597656 258.125 485.804688 C 251.046875 495.199219 244.5 507.09375 239.632812 519.414062 C 238.570312 522.097656 236.960938 526.566406 236.960938 526.832031 C 236.960938 526.960938 236.636719 527.355469 240.144531 522.960938 Z M 250.417969 504.210938 C 250.421875 503.324219 253.324219 498.511719 258.804688 490.300781 C 264.046875 482.449219 265.488281 480.457031 271.726562 472.417969 C 271.894531 472.199219 272.085938 472.074219 272.148438 472.136719 C 272.210938 472.199219 271.039062 473.882812 269.542969 475.882812 C 264.089844 483.171875 255.746094 495.617188 252.070312 501.945312 C 250.597656 504.484375 250.417969 504.730469 250.417969 504.210938 Z M 274.859375 473.851562 C 274.628906 473.253906 276.253906 471.234375 280.515625 466.832031 C 281.820312 465.480469 283.355469 463.84375 283.929688 463.191406 C 284.5 462.542969 284.96875 462.125 284.96875 462.261719 C 284.972656 462.550781 283.070312 464.847656 281.011719 467.035156 C 278.328125 469.894531 276.027344 472.5625 275.570312 473.335938 C 275.074219 474.183594 275.003906 474.234375 274.859375 473.851562 Z M 238.230469 504.992188 C 238.457031 504.367188 239.652344 501.746094 240.890625 499.167969 C 242.132812 496.589844 243.144531 494.449219 243.144531 494.40625 C 243.144531 494.167969 247.648438 484.917969 248.753906 482.882812 C 251.507812 477.816406 254.566406 473.023438 259.40625 466.195312 C 264.71875 458.703125 271.128906 448.78125 273.277344 444.726562 C 275.285156 440.933594 276.300781 439.421875 279.644531 435.25 C 283.46875 430.480469 285.414062 428.347656 289.113281 424.867188 C 295.832031 418.542969 301.027344 414.683594 306.429688 412 C 309.449219 410.496094 310.71875 410.050781 315.484375 408.808594 C 319.695312 407.707031 321.789062 406.941406 325.019531 405.304688 C 330.105469 402.730469 333.296875 399.863281 336.652344 394.859375 C 339.5 390.613281 341.5 386.082031 343.898438 378.476562 C 346.015625 371.761719 347.222656 368.625 351.839844 357.851562 C 356.03125 348.058594 357.363281 344.730469 358.507812 341.164062 C 359.234375 338.902344 359.964844 336.164062 360.164062 334.953125 C 360.285156 334.222656 360.269531 334.179688 359.957031 334.351562 C 359.457031 334.625 357.964844 335.9375 354.234375 339.382812 C 345.882812 347.09375 341.453125 350.480469 324.707031 361.945312 C 310.308594 371.800781 305.449219 375.351562 297.609375 381.757812 C 290.441406 387.613281 284.390625 393.195312 276.054688 401.628906 C 270.179688 407.574219 267.8125 410.109375 264.507812 413.980469 C 257.898438 421.722656 253.859375 427.578125 250.214844 434.71875 C 245.152344 444.632812 242.210938 454.0625 240.96875 464.351562 C 240.503906 468.195312 240.308594 470.789062 239.863281 479.023438 C 239.660156 482.773438 239.375 487.472656 239.230469 489.460938 C 239.082031 491.449219 238.964844 493.207031 238.972656 493.371094 C 238.976562 493.535156 239.421875 492.234375 239.960938 490.484375 C 247.132812 467.164062 258.023438 445.972656 272.46875 427.210938 C 286.003906 409.632812 302.242188 391.488281 312.886719 382.042969 C 316.898438 378.480469 323.222656 373.316406 323.566406 373.316406 C 323.929688 373.316406 323.480469 373.742188 319.796875 376.902344 C 310.964844 384.46875 303.289062 392.367188 292.171875 405.3125 C 279.1875 420.4375 270.519531 431.914062 263.777344 442.90625 C 256.070312 455.46875 248.144531 472.550781 243.054688 487.574219 C 240.308594 495.671875 237.320312 506.128906 237.753906 506.128906 C 237.792969 506.128906 238.007812 505.617188 238.230469 504.992188 Z M 245.28125 466 C 245.054688 465.769531 246.472656 461.574219 248.132812 457.582031 C 249.4375 454.441406 250.984375 451.183594 251.171875 451.183594 C 251.398438 451.183594 251.390625 451.214844 250.671875 452.765625 C 249.492188 455.316406 247.164062 461.230469 246.375 463.691406 C 245.632812 465.996094 245.519531 466.234375 245.28125 466 Z M 259.875 458.960938 C 259.875 458.371094 260.59375 457.066406 264.542969 450.496094 C 269.84375 441.675781 276.984375 430.574219 277.109375 430.957031 C 277.148438 431.070312 275.875 433.230469 274.28125 435.761719 C 268.640625 444.714844 260.476562 458.257812 260.304688 458.957031 C 260.167969 459.492188 259.875 459.496094 259.875 458.960938 Z M 254.429688 449.296875 C 254.390625 448.070312 260.101562 436.207031 264.382812 428.625 C 266.476562 424.921875 269.003906 420.800781 269.1875 420.800781 C 269.285156 420.800781 269.183594 421.109375 268.960938 421.484375 C 263.679688 430.390625 258.792969 439.683594 255.980469 446.179688 C 254.527344 449.535156 254.445312 449.699219 254.429688 449.296875 Z M 302.609375 407.839844 C 302.609375 407.714844 303.21875 407.023438 303.964844 406.304688 C 305.257812 405.058594 306.800781 403.972656 311.574219 400.960938 C 315.816406 398.28125 320.09375 394.652344 323.859375 390.539062 C 329.855469 383.980469 340.890625 370.230469 344.640625 364.640625 C 346.058594 362.523438 346.578125 362.296875 345.332031 364.335938 C 341.464844 370.667969 330.9375 384.234375 324.292969 391.453125 C 320.671875 395.382812 316.085938 399.199219 311.976562 401.695312 C 308.417969 403.859375 305.261719 406.011719 304.128906 407.042969 C 303.015625 408.058594 302.609375 408.269531 302.609375 407.839844 Z M 282.066406 405.519531 C 282.054688 404.765625 286.136719 400.199219 291.90625 394.507812 C 298.871094 387.640625 302.851562 384.046875 309.429688 378.691406 C 314.277344 374.75 313.886719 375.050781 313.886719 375.265625 C 313.886719 375.363281 312.0625 376.957031 309.839844 378.808594 C 304.855469 382.953125 301.5 385.929688 297.246094 389.980469 C 292.945312 394.078125 286.34375 400.804688 284.515625 402.957031 C 282.203125 405.675781 282.070312 405.816406 282.066406 405.519531 Z M 222.027344 404.652344 C 221.074219 401.9375 218.519531 395.570312 217.046875 392.234375 C 214.125 385.632812 210.761719 378.863281 201.777344 361.511719 C 196.5 351.324219 193.382812 344.496094 189.238281 334.054688 C 181.046875 313.421875 176.398438 297.882812 174.964844 286.347656 C 174.507812 282.652344 174.304688 278.886719 174.558594 278.886719 C 174.773438 278.886719 174.820312 279.121094 175.226562 282.433594 C 176.320312 291.304688 180.1875 304.664062 186.484375 321.351562 C 192.019531 336.027344 195.152344 342.660156 204.59375 359.667969 C 211.113281 371.417969 214.910156 378.792969 217.78125 385.269531 C 218.371094 386.59375 218.878906 387.644531 218.917969 387.605469 C 219.042969 387.480469 217.695312 380.617188 216.683594 376.226562 C 214.039062 364.734375 213.613281 361.183594 213.132812 346.660156 C 212.855469 338.300781 212.265625 334.414062 210.292969 328.011719 C 209.316406 324.839844 208.546875 322.867188 206.457031 318.1875 C 203.472656 311.507812 202.703125 309.507812 200.132812 301.722656 C 197.410156 293.476562 196.144531 290.207031 192.890625 283.035156 C 190.113281 276.917969 188.765625 273.550781 186.582031 267.242188 C 184.136719 260.175781 182.402344 255.4375 181.214844 252.578125 C 176.953125 242.3125 171.953125 233.765625 170.203125 233.765625 C 169.75 233.765625 169.5625 233.929688 168.964844 234.851562 C 166.953125 237.96875 162.910156 250.273438 161.027344 259.027344 C 159.851562 264.480469 159.363281 268.574219 159.195312 274.339844 C 159.058594 278.992188 159.3125 282.949219 159.980469 286.699219 C 160.550781 289.871094 160.605469 290.804688 160.222656 290.804688 C 160.070312 290.804688 159.816406 290.519531 159.652344 290.171875 C 159.355469 289.542969 159.351562 289.570312 159.214844 292.445312 C 159.019531 296.546875 159.238281 308.394531 159.574219 312.183594 C 160.628906 323.992188 163.671875 333.640625 170.933594 348.207031 C 174.402344 355.164062 176.445312 358.75 179.699219 363.582031 C 184.441406 370.628906 188.597656 375.035156 196.667969 381.570312 C 203.347656 386.976562 207.753906 390.6875 210.230469 392.988281 C 213.695312 396.207031 218.21875 401.042969 221.402344 404.925781 C 222 405.652344 222.507812 406.246094 222.535156 406.246094 C 222.5625 406.246094 222.332031 405.527344 222.027344 404.652344 Z M 203.097656 380.539062 C 199.21875 376.652344 194.339844 371.433594 191.617188 368.253906 C 189.234375 365.46875 186.507812 361.871094 186.660156 361.71875 C 186.726562 361.652344 186.910156 361.789062 187.066406 362.015625 C 189.714844 365.796875 196.328125 373.222656 203.355469 380.308594 C 205.234375 382.203125 206.773438 383.777344 206.773438 383.808594 C 206.773438 384.121094 205.941406 383.378906 203.097656 380.539062 Z M 177.960938 346.167969 C 176.347656 344.285156 171.941406 334.300781 169.261719 326.464844 C 167.957031 322.644531 166.332031 317.105469 166.472656 316.964844 C 166.535156 316.902344 166.613281 316.886719 166.648438 316.929688 C 166.683594 316.96875 167.183594 318.476562 167.757812 320.277344 C 169.742188 326.503906 172.53125 333.597656 175.65625 340.363281 C 177.269531 343.859375 178.136719 345.429688 178.816406 346.0625 C 179.332031 346.550781 179.351562 346.933594 178.863281 346.933594 C 178.726562 346.933594 178.320312 346.589844 177.960938 346.167969 Z M 209.417969 344.152344 C 209.085938 343.644531 202.589844 327.207031 195.019531 307.726562 C 192.765625 301.921875 190.308594 295.667969 189.5625 293.828125 C 188.820312 291.988281 188.253906 290.441406 188.308594 290.386719 C 188.363281 290.332031 188.433594 290.324219 188.472656 290.363281 C 188.648438 290.570312 191.996094 298.75 194.6875 305.542969 C 196.351562 309.746094 199.582031 317.890625 201.863281 323.644531 C 209.253906 342.277344 210.617188 345.984375 209.417969 344.152344 Z M 164.511719 283.761719 C 164.449219 283.53125 164.3125 281.214844 164.207031 278.613281 C 163.972656 272.894531 164.332031 261.601562 164.742188 261.601562 C 164.804688 261.601562 164.855469 265.839844 164.855469 271.019531 C 164.855469 276.195312 164.886719 281.25 164.925781 282.246094 C 164.96875 283.367188 164.925781 284.078125 164.8125 284.117188 C 164.710938 284.152344 164.578125 283.992188 164.515625 283.761719 Z M 186.203125 276.703125 C 185.96875 276.152344 184.847656 273.78125 183.707031 271.429688 C 179.917969 263.617188 178.589844 260.761719 178.46875 260.152344 C 178.28125 259.207031 178.742188 259.542969 179.214844 260.699219 C 179.4375 261.246094 180.988281 264.585938 182.65625 268.121094 C 185.851562 274.882812 186.835938 277.164062 186.707031 277.5 C 186.664062 277.613281 186.4375 277.253906 186.203125 276.703125 Z M 252.890625 291.59375 C 252.5625 291.121094 252.5 291.277344 252.796875 291.832031 C 252.90625 292.035156 253.035156 292.15625 253.089844 292.105469 C 253.140625 292.054688 253.050781 291.824219 252.890625 291.59375 Z M 252.699219 283.253906 C 252.375 278.21875 251.785156 271.503906 251.429688 268.789062 C 251.238281 267.339844 251 266.527344 250.257812 264.777344 C 248.582031 260.84375 246.21875 257.25 241.054688 250.777344 C 239.300781 248.578125 236.984375 245.558594 235.910156 244.066406 C 232.386719 239.175781 231.273438 237.722656 230.085938 236.464844 C 229.441406 235.78125 228.851562 235.222656 228.777344 235.222656 C 228.699219 235.222656 228.585938 235.417969 228.527344 235.65625 C 228.40625 236.136719 227.984375 236.375 227.515625 236.226562 C 227.335938 236.167969 226.535156 234.621094 225.515625 232.355469 C 222.96875 226.707031 220.066406 220.84375 218.605469 218.40625 C 214.878906 212.183594 210.441406 206.34375 203.59375 198.652344 C 196.902344 191.136719 192.691406 186.003906 188.21875 179.914062 C 184.917969 175.417969 182.804688 172.773438 180.214844 169.90625 C 177.664062 167.074219 171.363281 160.753906 170.804688 160.460938 C 170.414062 160.253906 170.398438 160.269531 170.511719 160.753906 C 170.730469 161.691406 172.078125 165.042969 174.226562 169.996094 C 178.460938 179.742188 181.011719 186.503906 185.707031 200.449219 C 188.878906 209.863281 190.296875 213.851562 191.84375 217.710938 C 199.15625 236 211.140625 254.171875 221.148438 262.148438 C 222.128906 262.929688 224.59375 264.679688 226.628906 266.035156 C 228.660156 267.394531 231.207031 269.195312 232.289062 270.035156 C 238.269531 274.695312 244.222656 280.640625 250 287.726562 C 250.335938 288.136719 249.863281 287.164062 248.894531 285.4375 C 247.964844 283.785156 246.484375 281.125 245.605469 279.523438 C 241.125 271.378906 237.316406 266.394531 233.304688 263.417969 C 232.523438 262.839844 230.523438 261.515625 228.859375 260.484375 C 224.722656 257.90625 222.386719 256.117188 219.527344 253.328125 C 214.640625 248.570312 211.214844 243.582031 206.847656 234.859375 C 203.792969 228.757812 201.847656 223.71875 200.886719 219.402344 C 200.46875 217.539062 200.414062 216.972656 200.671875 217.230469 C 200.71875 217.277344 201.050781 218.292969 201.410156 219.492188 C 202.433594 222.878906 203.753906 226.035156 206.050781 230.582031 C 210.933594 240.25 214.632812 245.777344 219.671875 250.933594 C 222.644531 253.976562 224.71875 255.632812 229.5625 258.832031 C 235.550781 262.785156 237.578125 264.621094 240.832031 269.019531 C 242.980469 271.925781 245.179688 275.59375 248.824219 282.34375 C 250.578125 285.597656 252.207031 288.601562 252.445312 289.027344 L 252.875 289.792969 L 252.929688 288.753906 C 252.960938 288.179688 252.855469 285.707031 252.699219 283.253906 Z M 231.828125 267.46875 C 227.003906 264.4375 221.277344 259.640625 219.644531 257.269531 C 218.878906 256.15625 219.191406 256.074219 220.089844 257.152344 C 222.335938 259.859375 228.355469 264.863281 232.457031 267.433594 C 233.882812 268.324219 234.316406 268.699219 233.914062 268.699219 C 233.839844 268.699219 232.902344 268.144531 231.828125 267.46875 Z M 243.625 263.285156 C 243.386719 262.90625 242.984375 262.183594 242.726562 261.671875 C 240.992188 258.25 237.320312 252.558594 234.910156 249.554688 C 234.128906 248.582031 231.695312 245.898438 229.507812 243.589844 C 224.953125 238.789062 223.164062 236.820312 222.066406 235.414062 C 221.21875 234.332031 220.328125 232.699219 220.492188 232.535156 C 220.546875 232.480469 220.617188 232.464844 220.648438 232.507812 C 220.675781 232.550781 220.921875 232.929688 221.191406 233.351562 C 221.988281 234.597656 223.6875 236.484375 228.691406 241.679688 C 231.292969 244.382812 233.914062 247.167969 234.511719 247.867188 C 237.347656 251.183594 240.429688 255.917969 242.835938 260.644531 C 243.707031 262.351562 244.417969 263.800781 244.417969 263.859375 C 244.417969 264.183594 244.003906 263.882812 243.625 263.285156 Z M 214.207031 235.019531 C 213.628906 234.441406 212.253906 231.40625 210.585938 227.042969 C 208.253906 220.941406 204.460938 212.019531 202.753906 208.625 C 201.363281 205.859375 200.25 203.382812 200.390625 203.382812 C 200.46875 203.382812 201.195312 204.671875 202.003906 206.246094 C 204.503906 211.128906 206.355469 215.300781 210.621094 225.671875 C 212.019531 229.074219 213.570312 232.625 214.0625 233.566406 C 214.554688 234.503906 214.957031 235.304688 214.957031 235.339844 C 214.957031 235.53125 214.542969 235.355469 214.207031 235.019531 Z M 194.78125 212.386719 C 194.5 211.511719 189.289062 198.214844 188.222656 195.664062 C 187.808594 194.671875 187.191406 193.304688 186.847656 192.621094 C 186.152344 191.242188 186.105469 190.972656 186.488281 190.652344 C 186.820312 190.378906 187.230469 190.585938 186.96875 190.898438 C 186.84375 191.046875 187.0625 191.707031 187.683594 193.054688 C 189.15625 196.261719 194.160156 209.199219 194.859375 211.617188 C 195.203125 212.8125 195.136719 213.5 194.78125 212.386719 Z M 192.40625 189.535156 C 188.503906 182.925781 188.144531 182.277344 188.371094 182.277344 C 188.703125 182.277344 196.226562 194.898438 196.226562 195.453125 C 196.226562 195.902344 195.515625 194.800781 192.40625 189.535156 Z M 255.78125 264.605469 C 259.054688 255.578125 262.542969 248.882812 268.855469 239.5 C 272.59375 233.9375 277.402344 227.542969 280.140625 224.484375 C 284.136719 220.027344 291.117188 212.847656 304.871094 199.050781 C 321.347656 182.519531 325.523438 178.429688 325.523438 178.828125 C 325.523438 178.953125 324.355469 180.25 322.929688 181.710938 C 318.957031 185.78125 307.355469 197.914062 295.320312 210.582031 C 289.214844 217.007812 282.488281 224.355469 280.5625 226.703125 C 273.84375 234.894531 266.871094 245.164062 262.472656 253.34375 C 261.265625 255.585938 259.691406 258.804688 259.691406 259.027344 C 259.691406 259.082031 260.613281 258.226562 261.738281 257.128906 C 266.496094 252.476562 269 250.714844 276.421875 246.78125 C 282.789062 243.40625 284.960938 241.992188 291.335938 237.046875 C 300.609375 229.855469 304.769531 227.078125 315.515625 220.886719 C 320.535156 218 322.886719 216.457031 325.15625 214.5625 C 330.441406 210.164062 332.402344 207.539062 336.347656 199.585938 C 338.925781 194.386719 340.644531 191.324219 342.679688 188.28125 C 344.570312 185.460938 348.929688 179.554688 351.59375 176.207031 C 354.761719 172.226562 359.136719 166.273438 360.753906 163.738281 C 362.285156 161.34375 364.773438 156.511719 365.332031 154.855469 C 365.859375 153.285156 365.835938 151.59375 365.261719 149.90625 C 365.015625 149.179688 364.566406 147.421875 364.261719 146.003906 C 363.589844 142.839844 362.894531 140.929688 362.464844 141.046875 C 361.457031 141.320312 360.582031 141.308594 358.351562 140.992188 C 356.007812 140.65625 355.660156 140.648438 352.824219 140.890625 C 348.066406 141.292969 345.757812 141.871094 342.613281 143.441406 C 340.851562 144.320312 339.964844 144.523438 339.429688 144.171875 C 338.914062 143.835938 338.621094 142.878906 338.617188 141.554688 L 338.617188 140.582031 L 337.570312 141.425781 C 335.816406 142.84375 335.152344 143.257812 332.515625 144.59375 C 328.949219 146.398438 328.269531 146.890625 324.058594 150.746094 C 319.367188 155.046875 318.941406 155.394531 316.613281 156.898438 C 315.5625 157.574219 313.066406 159.21875 311.066406 160.550781 C 309.066406 161.882812 306.125 163.675781 304.535156 164.539062 C 294.894531 169.765625 290.480469 173.6875 285.777344 181.1875 C 283.0625 185.515625 281.636719 188.492188 278.058594 197.289062 C 276.878906 200.191406 275.09375 204.445312 274.09375 206.75 C 266.949219 223.167969 264.632812 229.730469 258.238281 251.6875 C 256.722656 256.890625 255.207031 262.066406 254.871094 263.1875 C 254.332031 264.96875 254.269531 265.386719 254.363281 266.515625 C 254.421875 267.226562 254.527344 267.742188 254.597656 267.664062 C 254.667969 267.582031 255.199219 266.207031 255.78125 264.605469 Z M 266.785156 238.210938 C 266.785156 237.757812 268.523438 232.558594 269.972656 228.671875 C 273.414062 219.445312 277.183594 210.644531 280.746094 203.519531 C 282.285156 200.441406 283.625 197.925781 283.726562 197.925781 C 283.957031 197.925781 284.125 197.550781 281.761719 202.304688 C 277.601562 210.664062 272.933594 221.921875 268.847656 233.445312 C 267.21875 238.035156 266.785156 239.039062 266.785156 238.210938 Z M 291.882812 232.15625 C 291.882812 232.070312 292.808594 231.335938 293.945312 230.527344 C 301.695312 224.996094 308.910156 218.726562 318.066406 209.566406 C 322.566406 205.066406 326.46875 200.792969 329.070312 197.507812 C 329.765625 196.628906 330.367188 195.992188 330.402344 196.097656 C 330.480469 196.339844 328.011719 199.503906 325.433594 202.457031 C 319.886719 208.816406 310.347656 218.132812 303.429688 223.953125 C 299.734375 227.0625 292.605469 232.3125 292.082031 232.3125 C 291.972656 232.3125 291.878906 232.242188 291.878906 232.15625 Z M 285.425781 212.980469 C 285.207031 212.445312 287.050781 209.632812 290.527344 205.191406 C 295.378906 198.992188 296.277344 198.363281 291.796875 204.304688 C 289.296875 207.621094 286.957031 210.972656 285.761719 212.953125 C 285.566406 213.273438 285.542969 213.277344 285.425781 212.980469 Z M 295.882812 183.265625 C 295.882812 183.042969 297.5625 181.03125 298.917969 179.628906 C 305.179688 173.15625 320.21875 160.953125 331.398438 153.273438 C 332.679688 152.390625 333.777344 151.722656 333.839844 151.78125 C 333.898438 151.84375 333.914062 151.921875 333.875 151.953125 C 333.832031 151.988281 332.488281 152.945312 330.886719 154.082031 C 318.664062 162.765625 302.78125 176.03125 297.699219 181.804688 C 296.523438 183.140625 295.882812 183.65625 295.882812 183.265625 Z M 327.246094 171.898438 C 327.101562 171.664062 328.996094 169.78125 333.34375 165.828125 C 335.09375 164.238281 337.769531 161.804688 339.285156 160.417969 C 342.027344 157.914062 343.074219 157.128906 341.519531 158.738281 C 341.074219 159.199219 338.621094 161.523438 336.070312 163.90625 C 333.519531 166.285156 330.519531 169.101562 329.402344 170.164062 C 328.207031 171.300781 327.316406 172.015625 327.246094 171.898438 Z M 347.8125 170.953125 C 348.214844 169.628906 348.675781 168.695312 349.410156 167.679688 C 350.722656 165.878906 350.921875 165.660156 351.128906 165.789062 C 351.511719 166.027344 349.632812 169.472656 348.367188 170.859375 C 347.8125 171.46875 347.644531 171.496094 347.8125 170.953125 Z M 251.0625 181.851562 C 251.144531 181.410156 251.015625 180.792969 250.601562 179.621094 C 248.652344 174.109375 244.457031 159.035156 242.433594 150.257812 C 240.003906 139.71875 239.214844 134.550781 238.414062 123.875 C 237.628906 113.402344 236.875 108.839844 235.042969 103.492188 C 234.085938 100.691406 233.230469 98.765625 230.804688 93.945312 C 229.796875 91.945312 228.511719 89.164062 227.949219 87.773438 C 225.5625 81.871094 223.3125 74.027344 222.589844 69.070312 C 222.082031 65.613281 222.070312 59.832031 222.570312 59.832031 C 222.632812 59.832031 222.6875 61.246094 222.691406 62.96875 C 222.699219 66.648438 222.96875 68.589844 224.15625 73.441406 C 225.871094 80.460938 228.417969 87.320312 231.699219 93.777344 C 234.234375 98.769531 235.199219 100.941406 236.308594 104.1875 C 238.242188 109.851562 239.121094 114.882812 240.144531 126.148438 C 241.222656 138.023438 242.25 144.019531 245.234375 155.804688 C 246.363281 160.261719 249.359375 171.242188 250.285156 174.316406 C 250.308594 174.394531 250.328125 170.953125 250.328125 166.675781 C 250.328125 160.289062 250.386719 158.425781 250.652344 156.261719 C 251.382812 150.367188 252.328125 145.347656 253.871094 139.15625 C 256.203125 129.796875 256.769531 126.363281 256.914062 120.65625 C 257.03125 115.964844 256.8125 112.820312 256.058594 108.320312 C 254.585938 99.550781 252.335938 92.605469 245.265625 74.980469 C 240.15625 62.25 238.472656 57.394531 236.613281 50.03125 C 234.890625 43.21875 234.128906 38.882812 231.886719 23.078125 C 230.269531 11.652344 229.984375 9.449219 229.773438 6.613281 C 229.628906 4.683594 229.347656 2.527344 229.210938 2.304688 C 228.941406 1.871094 227.261719 5.15625 225.144531 10.253906 C 223.484375 14.253906 215.5 34.25 213.960938 38.273438 C 209.1875 50.71875 206.382812 60.234375 204.972656 68.746094 C 202.023438 86.597656 204.554688 104.539062 212.308594 120.691406 C 216.332031 129.070312 219.3125 133.109375 227.996094 141.945312 C 231.128906 145.128906 234.511719 148.691406 235.511719 149.859375 C 241.144531 156.425781 245.378906 164.058594 248.144531 172.632812 C 248.867188 174.875 250.601562 181.570312 250.601562 182.125 C 250.601562 182.695312 250.941406 182.492188 251.0625 181.851562 Z M 224 127.894531 C 222.378906 126.171875 220.867188 123.820312 218.960938 120.050781 C 213.800781 109.832031 209.613281 98.054688 208.128906 89.582031 C 207.609375 86.617188 207.644531 86.941406 207.847656 86.941406 C 207.9375 86.941406 208.109375 87.535156 208.226562 88.261719 C 210.121094 99.890625 219.09375 121.660156 224.550781 127.859375 C 225.074219 128.457031 225.503906 128.992188 225.503906 129.046875 C 225.503906 129.359375 225.058594 129.019531 224 127.894531 Z M 252.890625 121.007812 C 252.835938 120.734375 252.546875 118.953125 252.25 117.050781 C 250.984375 108.984375 249.160156 101.804688 246.394531 94.035156 C 244.828125 89.636719 236.054688 66.285156 231.324219 53.917969 C 225.402344 38.445312 225.304688 38.179688 225.503906 38.179688 C 225.835938 38.179688 238.058594 69.546875 244.964844 88.125 C 249.683594 100.824219 251.460938 107.433594 252.78125 117.207031 C 253.40625 121.816406 253.378906 121.507812 253.160156 121.507812 C 253.066406 121.507812 252.945312 121.285156 252.890625 121.007812 Z M 229.996094 111.183594 C 229.519531 110.347656 228.121094 104.957031 227.507812 101.597656 C 227.089844 99.332031 227.089844 99.3125 227.285156 99.3125 C 227.367188 99.3125 227.625 100.316406 227.859375 101.542969 C 228.410156 104.445312 229.371094 108.339844 229.941406 110 C 230.1875 110.726562 230.320312 111.320312 230.234375 111.320312 C 230.144531 111.320312 230.039062 111.257812 229.996094 111.183594 Z M 215.886719 82.894531 C 215.269531 80.96875 214.78125 75.324219 214.78125 70.019531 C 214.773438 61.183594 215.535156 51.484375 216.875 43.367188 C 217.324219 40.644531 218.511719 35.109375 218.683594 34.9375 C 218.945312 34.675781 218.882812 35.21875 218.40625 37.363281 C 217.28125 42.417969 216.367188 49.035156 215.765625 56.464844 C 215.367188 61.347656 215.207031 73.042969 215.488281 76.433594 C 215.695312 78.960938 216.097656 82.074219 216.332031 83.015625 C 216.507812 83.703125 216.113281 83.597656 215.886719 82.894531 Z M 284.542969 140.503906 C 286.726562 139.746094 289.195312 138.84375 290.027344 138.5 C 294.910156 136.484375 301.070312 132.722656 307.847656 127.617188 C 313.910156 123.050781 316.574219 120.6875 325.613281 111.867188 C 327.917969 109.613281 330.621094 107.148438 331.621094 106.386719 C 336.566406 102.609375 343.167969 98.941406 350.890625 95.671875 C 361.832031 91.042969 368.625 86.765625 374.71875 80.667969 C 378.460938 76.921875 380.484375 73.980469 382.039062 70.019531 C 383.066406 67.40625 384.191406 62.230469 384.609375 58.195312 C 384.847656 55.886719 385.164062 49.542969 385.167969 46.933594 L 385.171875 45.042969 L 383.492188 46.664062 C 379.753906 50.273438 373.390625 55.078125 364.441406 61.046875 C 354.632812 67.589844 349.578125 70.539062 336.027344 77.640625 C 327.773438 81.964844 325.425781 83.367188 323.402344 85.191406 C 322.882812 85.660156 322.410156 85.960938 322.351562 85.863281 C 322.183594 85.59375 323.292969 84.433594 324.707031 83.398438 C 327.246094 81.535156 327.082031 81.628906 341.710938 73.976562 C 348.996094 70.164062 351.839844 68.558594 356.875 65.421875 C 367.617188 58.726562 377.792969 51.417969 383.15625 46.539062 L 385.222656 44.660156 L 385.105469 39.738281 C 384.988281 34.894531 384.882812 33.449219 384.652344 33.453125 C 384.589844 33.453125 383.921875 34.414062 383.171875 35.589844 C 377.558594 44.386719 372.199219 49.75 364.351562 54.425781 C 359.707031 57.195312 346.660156 64.152344 338.800781 68.050781 C 313.402344 80.652344 307.898438 84.699219 299.722656 96.765625 C 296.71875 101.203125 291.480469 110.101562 287.515625 117.507812 C 285.570312 121.136719 276.921875 138.621094 277.019531 138.722656 C 277.171875 138.871094 300.429688 113.316406 306.261719 106.589844 C 309.011719 103.417969 311.191406 100.714844 312.894531 98.355469 C 314.105469 96.679688 314.613281 96.242188 314.613281 96.878906 C 314.613281 97.320312 312.074219 101.777344 310.292969 104.46875 C 307.355469 108.898438 300.363281 118.015625 295.007812 124.398438 C 293.949219 125.664062 291.03125 129.109375 288.523438 132.0625 C 281.53125 140.289062 280.210938 141.886719 280.394531 141.886719 C 280.488281 141.886719 282.355469 141.265625 284.542969 140.503906 Z M 289.699219 136.292969 C 289.699219 136.21875 290.085938 135.914062 290.5625 135.621094 C 296.34375 132.050781 309.574219 120.503906 318.003906 111.675781 C 322.59375 106.871094 324.035156 105.195312 327.289062 100.859375 C 329.675781 97.679688 330.160156 97.148438 330.441406 97.425781 C 330.628906 97.617188 327.449219 101.875 324.34375 105.589844 C 320 110.789062 312.972656 117.753906 305.339844 124.4375 C 299.234375 129.777344 295.34375 132.875 292.027344 135.039062 C 289.875 136.441406 289.699219 136.539062 289.699219 136.292969 Z M 290.609375 115.445312 C 290.609375 114.789062 295.160156 109.035156 299.40625 104.316406 C 302.039062 101.394531 305.894531 97.464844 306.066406 97.527344 C 306.148438 97.558594 305.195312 98.691406 303.945312 100.039062 C 299.757812 104.574219 293.996094 111.449219 292.105469 114.167969 C 291.132812 115.570312 290.609375 116.015625 290.609375 115.445312 Z M 334.617188 98.757812 C 335.992188 97.546875 340.039062 94.664062 346.617188 90.214844 C 352.316406 86.359375 360.191406 80.960938 360.757812 80.523438 C 360.917969 80.398438 360.984375 80.425781 360.984375 80.613281 C 360.984375 80.941406 357.972656 83.066406 347.617188 90.039062 C 339.753906 95.332031 337.164062 97.132812 335.152344 98.703125 C 333.886719 99.691406 333.515625 99.726562 334.617188 98.757812 Z M 365.769531 81.78125 C 365.832031 81.613281 366.203125 81.007812 366.589844 80.433594 C 366.976562 79.859375 368.179688 77.875 369.261719 76.023438 C 371.734375 71.800781 372.375 70.78125 372.949219 70.164062 C 373.714844 69.335938 373.757812 69.796875 373.011719 70.894531 C 372.625 71.464844 371.269531 73.648438 369.992188 75.75 C 368.71875 77.851562 367.316406 80.078125 366.875 80.699219 C 366.046875 81.863281 365.550781 82.347656 365.769531 81.78125 Z M 260.554688 361.898438 C 262.484375 358.164062 264.289062 355.019531 265.648438 353.027344 C 268.488281 348.875 272.785156 343.347656 276.015625 339.703125 C 279.789062 335.441406 287.753906 329.78125 299.246094 323.195312 C 305.933594 319.363281 312.683594 314.78125 317.304688 310.925781 C 320.074219 308.617188 326.210938 302.53125 328.691406 299.628906 C 331.25 296.640625 335.71875 290.601562 339.125 285.527344 C 341.980469 281.277344 342.8125 279.738281 342.453125 279.378906 C 342.34375 279.269531 341.199219 279.480469 339.347656 279.957031 C 336.1875 280.765625 334.859375 280.898438 334.675781 280.417969 C 334.515625 279.996094 334.980469 279.605469 339.515625 276.367188 C 347.171875 270.894531 351.964844 268.386719 363 264.082031 C 370.375 261.207031 380.558594 255.679688 389.628906 249.636719 C 398.5625 243.683594 405.5 238.042969 410.113281 232.976562 C 414.976562 227.640625 418.300781 222.472656 424.613281 210.429688 C 426.226562 207.351562 428.804688 202.644531 430.339844 199.96875 C 433.332031 194.757812 434.769531 191.988281 435.714844 189.609375 C 436.351562 188.007812 436.640625 187.628906 437.109375 187.808594 C 437.332031 187.894531 437.355469 187.980469 437.203125 188.164062 C 437.09375 188.296875 436.667969 189.457031 436.257812 190.742188 C 435.144531 194.222656 434.121094 196.425781 428.148438 208.203125 C 420.367188 223.546875 417.675781 227.839844 412.097656 233.859375 C 404.296875 242.261719 390.496094 252.113281 376.003906 259.613281 C 370.699219 262.359375 367.433594 263.757812 359.4375 266.703125 C 353.457031 268.910156 347.71875 271.796875 343.011719 274.964844 C 340.039062 276.964844 336.6875 279.488281 336.90625 279.558594 C 337.011719 279.597656 338.113281 279.378906 339.355469 279.074219 C 341.929688 278.445312 342.648438 278.398438 343.078125 278.828125 C 343.707031 279.457031 343.027344 281.308594 341.148438 284.097656 C 340.644531 284.84375 339.488281 286.699219 338.582031 288.21875 C 336.71875 291.347656 332.675781 297.386719 330.6875 300.015625 C 326.9375 304.976562 322.058594 309.988281 317.160156 313.917969 C 313.480469 316.867188 306.292969 321.414062 300.585938 324.394531 C 295.402344 327.105469 291.910156 329.132812 288.390625 331.480469 C 282.601562 335.34375 279.824219 337.539062 276.96875 340.5 C 272.40625 345.234375 265.515625 354.257812 262.523438 359.421875 C 260.296875 363.257812 259.917969 363.855469 259.695312 363.855469 C 259.613281 363.855469 260 362.972656 260.554688 361.898438 Z M 287.257812 325.761719 C 287.3125 325.628906 288.511719 324.664062 289.929688 323.625 C 298.972656 316.992188 310.511719 307.109375 314.21875 302.824219 C 315.363281 301.503906 315.695312 301.605469 314.597656 302.941406 C 311.785156 306.382812 304.105469 313.46875 296.972656 319.199219 C 294.28125 321.363281 293.320312 322.078125 290.078125 324.324219 C 287.730469 325.945312 287.054688 326.292969 287.257812 325.761719 Z M 283.984375 307.347656 C 283.3125 306.675781 284 303.753906 285.625 300.355469 C 286.703125 298.105469 288.222656 295.542969 288.382812 295.703125 C 288.4375 295.757812 287.980469 296.773438 287.367188 297.957031 C 285.988281 300.625 285.101562 302.90625 284.6875 304.839844 C 284.34375 306.460938 284.402344 306.90625 284.964844 306.90625 C 285.484375 306.90625 285.425781 307.246094 284.867188 307.457031 C 284.277344 307.679688 284.320312 307.6875 283.984375 307.347656 Z M 321.136719 293.214844 C 321.128906 293.089844 321.132812 292.867188 321.15625 292.71875 C 321.203125 292.394531 323.667969 289.242188 326.691406 285.640625 C 327.898438 284.199219 329.0625 282.808594 329.28125 282.546875 C 329.496094 282.285156 329.726562 282.125 329.796875 282.191406 C 329.863281 282.257812 328.1875 284.625 326.074219 287.445312 C 323.5625 290.800781 322.265625 292.675781 322.335938 292.859375 C 322.394531 293.015625 322.339844 293.207031 322.210938 293.289062 C 321.851562 293.515625 321.160156 293.46875 321.136719 293.214844 Z M 296.609375 279.703125 C 296.609375 279.304688 299.164062 275.960938 302.273438 272.289062 C 305.480469 268.5 309.210938 264.5 313 260.78125 C 329.179688 244.898438 347.074219 232.378906 374.148438 218.003906 C 380.246094 214.765625 397.742188 205.984375 403.628906 203.207031 C 409.824219 200.285156 417.234375 197 417.441406 197.082031 C 417.640625 197.160156 416.4375 197.746094 410.90625 200.285156 C 397.539062 206.421875 375.882812 217.425781 364.804688 223.710938 C 341.84375 236.738281 325.789062 248.65625 311.152344 263.535156 C 306.453125 268.316406 301.136719 274.34375 297.824219 278.660156 C 297.070312 279.644531 296.609375 280.039062 296.609375 279.703125 Z M 365.167969 258.523438 C 365.167969 258.058594 368.070312 255.746094 378.070312 248.230469 C 385.023438 243.003906 387.242188 241.238281 391.894531 237.238281 C 402.167969 228.40625 410.378906 220.558594 416.03125 214.160156 C 417.292969 212.734375 418.363281 211.605469 418.414062 211.652344 C 418.808594 212.050781 410.621094 220.796875 404.300781 226.730469 C 392.722656 237.597656 384.023438 244.859375 369.878906 255.472656 C 365.855469 258.496094 365.167969 258.9375 365.167969 258.523438 Z M 365.167969 258.523438 " fill-opacity="1" fill-rule="nonzero"/></g></svg>