<?xml version="1.0" encoding="UTF-8"?>
<svg id="Camada_1" data-name="Camada 1" xmlns="http://www.w3.org/2000/svg" viewBox="0 0 13.33 28.11">
  <path d="M6.21,7.7c4.05-1.72,7.93,3.18,5.6,6.84-.66,1.11-1.82,1.88-3.03,2.07,1.13-.48,2.01-1.33,2.52-2.35,1.72-3.36-1.41-7.26-5.09-6.55h0Z"/>
  <path d="M0,22.92c1.93,5.51,9.71,6.1,12.29.83.79-1.55.91-3.44.38-5.18.84,1.66.88,3.7.15,5.42-2.45,5.96-11.5,5.32-12.81-1.07h0Z"/>
  <path d="M.93,21.27c-.28.46.01,1.11.53,1.17,0,0-.07.27-.07.27l-.11-.02c-.18-.04-.12-.33.07-.29.66.15,1.34.16,1.98.01,1.89-.42,3.29-2.27,3.15-4.2,0,0,.73-.04.73-.04v.36s-.72.01-.72.01c.03-2.51.12-5.01.36-7.51.24,2.5.33,5,.36,7.51.01.47-.72.48-.73.02-.02-.29-.06-.72.34-.74.2,0,.37.15.38.34.12,1.49-.56,3.03-1.77,3.92-1.19.91-2.83,1.13-4.16.6l.09-.28.1.04c.18.04.1.32-.07.27-.62-.16-.9-.98-.47-1.44h0Z"/>
  <path d="M8.85,15.03c-.14,1.48-3,1.63-3.12,0,.11-1.63,2.98-1.48,3.12,0h0ZM8.85,15.03c-.09-1.32-2.55-1.09-2.62,0,.07,1.1,2.53,1.32,2.62,0h0Z"/>
  <path d="M8.02,21.59c-.51-5.74-.51-11.53,0-17.27.51,5.74.51,11.53,0,17.27h0Z"/>
  <path d="M9.26,0c-.67.57-1.81.57-2.48,0,.87.1,1.61.11,2.48,0h0Z"/>
  <path d="M9.26,0c.24.93.24,1.87,0,2.79-.24-.93-.24-1.87,0-2.79h0Z"/>
  <path d="M9.17,3.34c.03.52-.48.98-.99.9.34-.39.57-.59.99-.9h0Z"/>
  <path d="M7.81,1.54c.72.08.84,1.45,0,1.55-.84-.11-.72-1.48,0-1.55h0ZM7.81,1.54c-.66.06-.54,1.27,0,1.3.54-.03.66-1.24,0-1.3h0Z"/>
  <path d="M9.56,20.69c.82-.1.84-.83-.02-.8,0,0,0-.29,0-.29h.02s0,.3,0,.3c-1.99.12-3.98.12-5.97.07v-.43s0,.43.01.43c-1.03-.05-2.08.48-2.72,1.38.44-1.06,1.56-1.78,2.72-1.81.29-.01.29.44,0,.43-.29.02-.3-.44-.01-.43,2-.05,3.99-.05,5.99.07.19,0,.18.31-.02.3-.09,0-.18-.06-.18-.16.06-.28.5-.08.67,0,.66.4.11,1.06-.5.95h0Z"/>
</svg>